<svg width="35" height="36" viewBox="0 0 35 36" fill="none" xmlns="http://www.w3.org/2000/svg">
<path fill-rule="evenodd" clip-rule="evenodd" d="M8.14625 7.18808C7.29166 8.04266 7.29166 9.41641 7.29166 12.1668V25.2918C7.29166 28.0422 7.29166 29.416 8.14625 30.2706C9.00083 31.1252 10.3746 31.1252 13.125 31.1252H21.875C24.6254 31.1252 25.9992 31.1252 26.8537 30.2706C27.7083 29.416 27.7083 28.0422 27.7083 25.2918V12.1668C27.7083 9.41641 27.7083 8.04266 26.8537 7.18808C25.9992 6.3335 24.6254 6.3335 21.875 6.3335H13.125C10.3746 6.3335 9.00083 6.3335 8.14625 7.18808ZM13.125 12.1668C12.7382 12.1668 12.3673 12.3205 12.0938 12.594C11.8203 12.8675 11.6667 13.2384 11.6667 13.6252C11.6667 14.0119 11.8203 14.3829 12.0938 14.6564C12.3673 14.9298 12.7382 15.0835 13.125 15.0835H21.875C22.2618 15.0835 22.6327 14.9298 22.9062 14.6564C23.1797 14.3829 23.3333 14.0119 23.3333 13.6252C23.3333 13.2384 23.1797 12.8675 22.9062 12.594C22.6327 12.3205 22.2618 12.1668 21.875 12.1668H13.125ZM13.125 18.0002C12.7382 18.0002 12.3673 18.1538 12.0938 18.4273C11.8203 18.7008 11.6667 19.0717 11.6667 19.4585C11.6667 19.8453 11.8203 20.2162 12.0938 20.4897C12.3673 20.7632 12.7382 20.9168 13.125 20.9168H21.875C22.2618 20.9168 22.6327 20.7632 22.9062 20.4897C23.1797 20.2162 23.3333 19.8453 23.3333 19.4585C23.3333 19.0717 23.1797 18.7008 22.9062 18.4273C22.6327 18.1538 22.2618 18.0002 21.875 18.0002H13.125ZM13.125 23.8335C12.7382 23.8335 12.3673 23.9871 12.0938 24.2606C11.8203 24.5341 11.6667 24.9051 11.6667 25.2918C11.6667 25.6786 11.8203 26.0495 12.0938 26.323C12.3673 26.5965 12.7382 26.7502 13.125 26.7502H18.9583C19.3451 26.7502 19.716 26.5965 19.9895 26.323C20.263 26.0495 20.4167 25.6786 20.4167 25.2918C20.4167 24.9051 20.263 24.5341 19.9895 24.2606C19.716 23.9871 19.3451 23.8335 18.9583 23.8335H13.125Z" fill="#474747"/>
</svg>
