<svg width="35" height="36" viewBox="0 0 35 36" fill="none" xmlns="http://www.w3.org/2000/svg">
<path d="M7.47396 7.0625C6.26529 7.0625 5.10612 7.54264 4.25146 8.3973C3.39681 9.25196 2.91666 10.4111 2.91666 11.6198V13.9896H32.0833V11.6198C32.0833 10.4111 31.6032 9.25196 30.7485 8.3973C29.8939 7.54264 28.7347 7.0625 27.526 7.0625H7.47396ZM2.91666 24.3802V15.8125H32.0833V24.3802C32.0833 25.5889 31.6032 26.748 30.7485 27.6027C29.8939 28.4574 28.7347 28.9375 27.526 28.9375H7.47396C6.26529 28.9375 5.10612 28.4574 4.25146 27.6027C3.39681 26.748 2.91666 25.5889 2.91666 24.3802ZM22.7865 22.0104C22.5447 22.0104 22.3129 22.1064 22.142 22.2774C21.971 22.4483 21.875 22.6801 21.875 22.9219C21.875 23.1636 21.971 23.3954 22.142 23.5664C22.3129 23.7373 22.5447 23.8333 22.7865 23.8333H26.7969C27.0386 23.8333 27.2704 23.7373 27.4414 23.5664C27.6123 23.3954 27.7083 23.1636 27.7083 22.9219C27.7083 22.6801 27.6123 22.4483 27.4414 22.2774C27.2704 22.1064 27.0386 22.0104 26.7969 22.0104H22.7865Z" fill="#474747"/>
</svg>
