<svg width="35" height="36" viewBox="0 0 35 36" fill="none" xmlns="http://www.w3.org/2000/svg">
<path d="M17.5 8.15625C19.3871 8.15656 21.2343 8.69927 22.8216 9.71974C24.4089 10.7402 25.6695 12.1954 26.4532 13.9121C27.2368 15.6287 27.5106 17.5344 27.2417 19.4023C26.9729 21.2701 26.1729 23.0213 24.937 24.4472C23.701 25.8732 22.0812 26.9139 20.2705 27.4453C18.4599 27.9768 16.5346 27.9765 14.724 27.4447C12.9135 26.9129 11.2939 25.8718 10.0583 24.4455C8.82269 23.0193 8.02307 21.2679 7.75469 19.4C7.69319 18.9692 7.46309 18.5805 7.11501 18.3194C6.76692 18.0583 6.32936 17.9462 5.8986 18.0077C5.46783 18.0692 5.07913 18.2993 4.81801 18.6473C4.5569 18.9954 4.44475 19.433 4.50625 19.8638C4.92106 22.7598 6.29141 25.4343 8.39974 27.4626C10.5081 29.4909 13.2336 30.7568 16.1435 31.0593C19.0534 31.3618 21.981 30.6836 24.4614 29.1323C26.9419 27.581 28.8331 25.2456 29.8347 22.4968C30.8363 19.748 30.891 16.7434 29.9901 13.96C29.0891 11.1765 27.2842 8.77385 24.8618 7.13333C22.4394 5.49282 19.5385 4.70851 16.6195 4.90493C13.7005 5.10135 10.9307 6.26724 8.75 8.2175V6.51562C8.75 6.0805 8.57715 5.6632 8.26947 5.35553C7.9618 5.04785 7.5445 4.875 7.10938 4.875C6.67426 4.875 6.25696 5.04785 5.94928 5.35553C5.6416 5.6632 5.46875 6.0805 5.46875 6.51562V13.0781C5.46875 13.9838 6.20375 14.7188 7.10938 14.7188H12.5781C13.0132 14.7188 13.4305 14.5459 13.7382 14.2382C14.0459 13.9305 14.2188 13.5132 14.2188 13.0781C14.2188 12.643 14.0459 12.2257 13.7382 11.918C13.4305 11.6104 13.0132 11.4375 12.5781 11.4375H10.1631C11.0864 10.4052 12.2172 9.57939 13.4814 9.01397C14.7457 8.44856 16.1151 8.15628 17.5 8.15625ZM18.5938 13.0781C18.5938 12.643 18.4209 12.2257 18.1132 11.918C17.8055 11.6104 17.3882 11.4375 16.9531 11.4375C16.518 11.4375 16.1007 11.6104 15.793 11.918C15.4854 12.2257 15.3125 12.643 15.3125 13.0781V18.5469C15.3125 19.4525 16.0475 20.1875 16.9531 20.1875H21.3281C21.7632 20.1875 22.1805 20.0146 22.4882 19.707C22.7959 19.3993 22.9688 18.982 22.9688 18.5469C22.9688 18.1118 22.7959 17.6945 22.4882 17.3868C22.1805 17.0791 21.7632 16.9062 21.3281 16.9062H18.5938V13.0781Z" fill="#474747"/>
</svg>
