<svg width="35" height="36" viewBox="0 0 35 36" fill="none" xmlns="http://www.w3.org/2000/svg">
<path d="M29.0208 18.9624C28.787 18.6962 28.6581 18.3541 28.6581 17.9999C28.6581 17.6456 28.787 17.3035 29.0208 17.0374L30.8875 14.9374C31.0932 14.7079 31.2209 14.4192 31.2524 14.1127C31.2838 13.8062 31.2173 13.4975 31.0625 13.2311L28.1458 8.18528C27.9926 7.91917 27.7592 7.70823 27.479 7.58253C27.1988 7.45684 26.8861 7.42281 26.5854 7.48528L23.8438 8.03945C23.4949 8.11153 23.1317 8.05343 22.8228 7.87612C22.5138 7.6988 22.2804 7.41453 22.1667 7.07695L21.2771 4.4082C21.1792 4.11855 20.9929 3.86696 20.7442 3.68901C20.4956 3.51106 20.1974 3.41574 19.8917 3.41653H14.0583C13.7403 3.39994 13.4256 3.48789 13.1623 3.66695C12.8989 3.84602 12.7015 4.10635 12.6 4.4082L11.7833 7.07695C11.6696 7.41453 11.4362 7.6988 11.1272 7.87612C10.8183 8.05343 10.4551 8.11153 10.1062 8.03945L7.29167 7.48528C7.00664 7.44501 6.71606 7.48998 6.45655 7.61455C6.19703 7.73912 5.98019 7.9377 5.83333 8.18528L2.91667 13.2311C2.75794 13.4946 2.68657 13.8015 2.71277 14.1079C2.73896 14.4144 2.86137 14.7047 3.0625 14.9374L4.91458 17.0374C5.14838 17.3035 5.27732 17.6456 5.27732 17.9999C5.27732 18.3541 5.14838 18.6962 4.91458 18.9624L3.0625 21.0624C2.86137 21.2951 2.73896 21.5854 2.71277 21.8918C2.68657 22.1983 2.75794 22.5052 2.91667 22.7686L5.83333 27.8145C5.9866 28.0806 6.21996 28.2915 6.50016 28.4172C6.78035 28.5429 7.09308 28.5769 7.39375 28.5145L10.1354 27.9603C10.4843 27.8882 10.8475 27.9463 11.1564 28.1236C11.4654 28.3009 11.6988 28.5852 11.8125 28.9228L12.7021 31.5915C12.8036 31.8934 13.001 32.1537 13.2644 32.3328C13.5277 32.5119 13.8424 32.5998 14.1604 32.5832H19.9937C20.2995 32.584 20.5977 32.4887 20.8463 32.3107C21.0949 32.1328 21.2813 31.8812 21.3792 31.5915L22.2687 28.9228C22.3825 28.5852 22.6159 28.3009 22.9248 28.1236C23.2338 27.9463 23.597 27.8882 23.9458 27.9603L26.6875 28.5145C26.9882 28.5769 27.3009 28.5429 27.5811 28.4172C27.8613 28.2915 28.0947 28.0806 28.2479 27.8145L31.1646 22.7686C31.3194 22.5022 31.3859 22.1936 31.3544 21.887C31.323 21.5805 31.1953 21.2918 30.9896 21.0624L29.0208 18.9624ZM26.8479 20.9165L28.0146 22.229L26.1479 25.4665L24.4271 25.1165C23.3768 24.9018 22.2842 25.0802 21.3567 25.6179C20.4292 26.1556 19.7315 27.0151 19.3958 28.0332L18.8417 29.6665H15.1083L14.5833 28.004C14.2477 26.9859 13.5499 26.1264 12.6225 25.5887C11.695 25.0511 10.6024 24.8727 9.55208 25.0874L7.83125 25.4374L5.93542 22.2145L7.10208 20.902C7.81952 20.0998 8.21615 19.0614 8.21615 17.9853C8.21615 16.9091 7.81952 15.8707 7.10208 15.0686L5.93542 13.7561L7.80208 10.5478L9.52292 10.8978C10.5732 11.1125 11.6658 10.9341 12.5933 10.3964C13.5208 9.85875 14.2185 8.99927 14.5542 7.98112L15.1083 6.3332H18.8417L19.3958 7.9957C19.7315 9.01385 20.4292 9.87333 21.3567 10.411C22.2842 10.9487 23.3768 11.1271 24.4271 10.9124L26.1479 10.5624L28.0146 13.7999L26.8479 15.1124C26.1385 15.9126 25.7468 16.945 25.7468 18.0145C25.7468 19.0839 26.1385 20.1163 26.8479 20.9165ZM16.975 12.1665C15.8213 12.1665 14.6935 12.5087 13.7342 13.1496C12.7749 13.7906 12.0272 14.7016 11.5857 15.7675C11.1442 16.8334 11.0287 18.0063 11.2538 19.1379C11.4788 20.2695 12.0344 21.3089 12.8502 22.1247C13.666 22.9405 14.7054 23.496 15.837 23.7211C16.9685 23.9462 18.1414 23.8307 19.2073 23.3892C20.2732 22.9477 21.1843 22.2 21.8252 21.2407C22.4662 20.2814 22.8083 19.1536 22.8083 17.9999C22.8083 16.4528 22.1938 14.969 21.0998 13.8751C20.0058 12.7811 18.5221 12.1665 16.975 12.1665ZM16.975 20.9165C16.3981 20.9165 15.8342 20.7455 15.3546 20.425C14.8749 20.1045 14.5011 19.649 14.2804 19.116C14.0596 18.5831 14.0018 17.9966 14.1144 17.4309C14.2269 16.8651 14.5047 16.3454 14.9126 15.9375C15.3205 15.5296 15.8402 15.2518 16.406 15.1392C16.9718 15.0267 17.5582 15.0845 18.0912 15.3052C18.6241 15.526 19.0796 15.8998 19.4001 16.3795C19.7206 16.8591 19.8917 17.423 19.8917 17.9999C19.8917 18.7734 19.5844 19.5153 19.0374 20.0623C18.4904 20.6092 17.7485 20.9165 16.975 20.9165Z" fill="#474747"/>
</svg>
