<svg width="25" height="28" viewBox="0 0 25 28" fill="none" xmlns="http://www.w3.org/2000/svg">
<path d="M0.865 1.01241C0.891887 0.750406 1.02693 0.508159 1.24193 0.33624C1.45694 0.164321 1.73528 0.0760207 2.01885 0.0897749C2.30243 0.103529 2.56931 0.218274 2.76377 0.410053C2.95824 0.601833 3.06527 0.855822 3.0625 1.11899V7.91613C3.0625 8.14657 3.16127 8.36758 3.33709 8.53053C3.5129 8.69348 3.75136 8.78503 4 8.78503C4.24864 8.78503 4.4871 8.69348 4.66291 8.53053C4.83873 8.36758 4.9375 8.14657 4.9375 7.91613V0.966066C4.9375 0.735618 5.03627 0.51461 5.21209 0.351659C5.3879 0.188708 5.62636 0.0971632 5.875 0.0971632C6.12364 0.0971632 6.3621 0.188708 6.53791 0.351659C6.71373 0.51461 6.8125 0.735618 6.8125 0.966066V7.91613C6.8125 8.14657 6.91127 8.36758 7.08709 8.53053C7.2629 8.69348 7.50136 8.78503 7.75 8.78503C7.99864 8.78503 8.2371 8.69348 8.41291 8.53053C8.58873 8.36758 8.6875 8.14657 8.6875 7.91613V1.11899C8.69074 0.85929 8.80056 0.610477 8.99463 0.423126C9.1887 0.235776 9.45247 0.123949 9.73231 0.110376C10.0121 0.0968027 10.2871 0.182502 10.5012 0.350054C10.7153 0.517606 10.8525 0.754437 10.885 1.01241C10.98 1.84887 11.5 6.556 11.5 8.78619C11.5 10.3363 10.7688 11.7289 9.6125 12.6835C9.195 13.0264 9 13.3798 9 13.6764V14.5186L9.00125 14.5731C9.05375 15.267 9.625 23.0153 9.625 24.4264C9.625 24.8829 9.528 25.3348 9.33955 25.7565C9.15109 26.1782 8.87487 26.5613 8.52665 26.8841C8.17843 27.2068 7.76503 27.4628 7.31006 27.6375C6.85509 27.8121 6.36746 27.902 5.875 27.902C5.38254 27.902 4.89491 27.8121 4.43994 27.6375C3.98497 27.4628 3.57157 27.2068 3.22335 26.8841C2.87513 26.5613 2.59891 26.1782 2.41045 25.7565C2.222 25.3348 2.125 24.8829 2.125 24.4264C2.125 23.0153 2.6975 15.267 2.74875 14.5731L2.75 14.5186V13.6764C2.75 13.3809 2.555 13.0276 2.1375 12.6835C1.54378 12.1943 1.06861 11.594 0.743274 10.9223C0.417942 10.2505 0.249827 9.5225 0.25 8.78619C0.25 6.556 0.77 1.84887 0.865 1.01241ZM17.6938 13.9996L17.6538 14.6437C17.595 15.5903 17.5162 16.8681 17.4387 18.1912C17.2837 20.8176 17.125 23.6757 17.125 24.4264C17.125 24.8829 17.222 25.3348 17.4105 25.7565C17.5989 26.1782 17.8751 26.5613 18.2233 26.8841C18.5716 27.2068 18.985 27.4628 19.4399 27.6375C19.8949 27.8121 20.3825 27.902 20.875 27.902C21.3675 27.902 21.8551 27.8121 22.3101 27.6375C22.765 27.4628 23.1784 27.2068 23.5267 26.8841C23.8749 26.5613 24.1511 26.1782 24.3395 25.7565C24.528 25.3348 24.625 24.8829 24.625 24.4264C24.625 23.5911 24.4275 20.4017 24.2575 17.6432L24.2525 17.5667C24.1162 15.3667 24 13.4783 24 13.1307V0.966066C24 0.735618 23.9012 0.51461 23.7254 0.351659C23.5496 0.188708 23.3111 0.0971632 23.0625 0.0971632H22.4375C20.1997 0.0971632 18.0536 0.921067 16.4713 2.38762C14.8889 3.85418 14 5.84326 14 7.91728V11.9722C14 13.0913 14.98 13.9996 16.1875 13.9996H17.6938Z" fill="#474747"/>
</svg>
