<svg width="35" height="36" viewBox="0 0 35 36" fill="none" xmlns="http://www.w3.org/2000/svg">
<path d="M8.75 29.6668L10.9375 24.1981C11.1562 23.6391 11.5087 23.1952 11.9948 22.8666C12.4809 22.538 13.0278 22.3742 13.6354 22.3752H16.0417V16.5054C12.3229 16.3838 9.20548 15.837 6.68937 14.8647C4.17326 13.8925 2.91569 12.7502 2.91666 11.4377C2.91666 10.0279 4.33854 8.82482 7.18229 7.82829C10.026 6.83176 13.4653 6.3335 17.5 6.3335C21.559 6.3335 25.0046 6.83176 27.8367 7.82829C30.6687 8.82482 32.0843 10.0279 32.0833 11.4377C32.0833 12.7502 30.8253 13.8925 28.3092 14.8647C25.7931 15.837 22.6761 16.3838 18.9583 16.5054V22.3752H21.3646C21.9479 22.3752 22.489 22.5395 22.9877 22.8681C23.4865 23.1967 23.8447 23.64 24.0625 24.1981L26.25 29.6668H23.3333L21.5833 25.2918H13.4167L11.6667 29.6668H8.75Z" fill="#474747"/>
</svg>
