<svg width="202" height="209" viewBox="0 0 202 209" fill="none" xmlns="http://www.w3.org/2000/svg">
<g opacity="0.28">
<path fill-rule="evenodd" clip-rule="evenodd" d="M99.4086 43.168C101.682 43.168 103.501 45.0863 103.501 47.4028V162.431C103.501 164.784 101.647 166.666 99.4086 166.666C97.1353 166.666 95.3167 164.748 95.3167 162.431V47.439C95.3167 45.0863 97.1703 43.2042 99.4086 43.2042V43.168Z" fill="white" stroke="#231F20" stroke-miterlimit="10"/>
<path d="M99.4083 167.607C96.6453 167.607 94.407 165.29 94.407 162.431V47.4386C94.407 44.5792 96.6453 42.2627 99.4083 42.2627C102.171 42.2627 104.41 44.5792 104.41 47.4386V162.467C104.41 165.327 102.171 167.643 99.4083 167.643V167.607ZM99.4083 44.0725C97.6246 44.0725 96.1907 45.5565 96.1907 47.4024V162.431C96.1907 164.277 97.6246 165.761 99.4083 165.761C101.192 165.761 102.626 164.277 102.626 162.431V47.4386C102.626 45.5927 101.192 44.1087 99.4083 44.1087V44.0725Z" fill="#070707" stroke="#231F20" stroke-miterlimit="10"/>
<path fill-rule="evenodd" clip-rule="evenodd" d="M159.109 104.952C159.109 107.304 157.256 109.223 155.017 109.223H43.8344C41.5611 109.223 39.7424 107.304 39.7424 104.952C39.7424 102.599 41.5961 100.717 43.8344 100.717H154.982C157.256 100.717 159.074 102.635 159.074 104.952H159.109Z" fill="white" stroke="#231F20" stroke-miterlimit="10"/>
<path d="M154.982 110.129H43.8341C41.0711 110.129 38.8328 107.812 38.8328 104.953C38.8328 102.093 41.0711 99.7769 43.8341 99.7769H154.982C157.745 99.7769 159.983 102.093 159.983 104.953C159.983 107.812 157.745 110.129 154.982 110.129ZM43.8341 101.623C42.0504 101.623 40.6164 103.107 40.6164 104.953C40.6164 106.799 42.0504 108.283 43.8341 108.283H154.982C156.766 108.283 158.2 106.799 158.2 104.953C158.2 103.107 156.766 101.623 154.982 101.623H43.8341Z" fill="#070707" stroke="#231F20" stroke-miterlimit="10"/>
<path fill-rule="evenodd" clip-rule="evenodd" d="M99.408 158.666C128.017 158.666 151.345 134.524 151.345 104.916C151.345 75.3087 128.017 51.1665 99.408 51.1665C70.7992 51.1665 47.4714 75.3087 47.4714 104.916C47.4714 134.524 70.7992 158.666 99.408 158.666Z" fill="white" stroke="#231F20" stroke-miterlimit="10"/>
<path d="M99.4082 159.608C70.2747 159.608 46.5623 135.068 46.5623 104.953C46.5623 74.8388 70.2747 50.2622 99.4082 50.2622C128.542 50.2622 152.254 74.8026 152.254 104.953C152.254 135.104 128.542 159.608 99.4082 159.608ZM99.4082 52.1082C71.254 52.1082 48.3459 75.816 48.3459 104.953C48.3459 134.09 71.254 157.762 99.4082 157.762C127.562 157.762 150.47 134.054 150.47 104.953C150.47 75.8522 127.562 52.1082 99.4082 52.1082V52.1082Z" fill="#070707" stroke="#231F20" stroke-miterlimit="10"/>
<path fill-rule="evenodd" clip-rule="evenodd" d="M134.802 45.6299L161.802 73.5726C163.656 75.4909 166.699 75.4909 168.552 73.5726L196.532 44.6164L162.746 9.68799L134.767 38.6442C132.914 40.5625 132.914 43.7115 134.767 45.6299H134.802Z" fill="white" stroke="#231F20" stroke-miterlimit="10"/>
<path d="M165.16 75.9603C163.656 75.9603 162.222 75.345 161.138 74.2591L134.138 46.3164C133.053 45.2305 132.494 43.7465 132.494 42.1901C132.494 40.6337 133.088 39.1497 134.138 38.0277L162.747 8.38379L197.756 44.6152L169.147 74.2229C168.098 75.345 166.664 75.9241 165.125 75.9241L165.16 75.9603ZM162.747 11.026L135.397 39.3307C134.662 40.0908 134.278 41.1043 134.278 42.1539C134.278 43.2398 134.662 44.2533 135.397 44.9772L162.397 72.9199C163.866 74.4401 166.419 74.4401 167.888 72.9199L195.238 44.6152L162.747 10.9898V11.026Z" fill="#070707" stroke="#231F20" stroke-miterlimit="10"/>
<path fill-rule="evenodd" clip-rule="evenodd" d="M168.518 8.27439L197.896 38.6784C199.749 40.5967 201.603 44.2163 198.281 45.2659L194.888 46.3518L161.103 11.3872L162.152 7.87624C163.271 4.03955 166.664 6.35604 168.518 8.27439V8.27439Z" fill="white" stroke="#231F20" stroke-miterlimit="10"/>
<path d="M194.608 47.3667L160.124 11.6782L161.313 7.62431C162.012 5.27162 163.481 4.90967 164.321 4.90967C166.314 4.90967 168.378 6.82802 169.147 7.66051L198.525 38.0645C199.924 39.5123 201.393 41.9012 200.904 43.892C200.729 44.6521 200.169 45.7017 198.525 46.1723L194.608 47.4029V47.3667ZM162.117 11.1353L195.133 45.3036L198.036 44.3987C199.015 44.0729 199.155 43.5662 199.19 43.4214C199.435 42.4803 198.595 40.743 197.266 39.3675L167.888 8.92734C166.594 7.58812 165.195 6.71943 164.321 6.71943C164.076 6.71943 163.446 6.71943 163.027 8.13105L162.152 11.1353H162.117Z" fill="#070707" stroke="#231F20" stroke-miterlimit="10"/>
<path fill-rule="evenodd" clip-rule="evenodd" d="M67.1976 163.372L40.1976 135.429C38.344 133.511 35.3012 133.511 33.4476 135.429L5.46826 164.385L39.2183 199.314L67.1976 170.357C69.0513 168.439 69.0513 165.29 67.1976 163.372Z" fill="white" stroke="#231F20" stroke-miterlimit="10"/>
<path d="M39.2186 200.617L4.20947 164.349L32.8183 134.741C34.9518 132.533 38.694 132.533 40.8274 134.741L67.8275 162.684C70.0308 164.964 70.0308 168.693 67.8275 170.973L39.2186 200.581V200.617ZM6.72761 164.349L39.2186 197.974L66.5684 169.67C68.0723 168.113 68.0723 165.544 66.5684 163.987L39.5683 136.044C38.0994 134.524 35.5463 134.524 34.0774 136.044L6.72761 164.349V164.349Z" fill="#070707" stroke="#231F20" stroke-miterlimit="10"/>
<path fill-rule="evenodd" clip-rule="evenodd" d="M33.4818 200.724L4.10351 170.32C2.24988 168.402 0.396253 164.782 3.7188 163.733L7.11129 162.647L40.8613 197.575L39.8471 201.086C38.7279 204.923 35.3354 202.607 33.4818 200.688V200.724Z" fill="white" stroke="#231F20" stroke-miterlimit="10"/>
<path d="M37.6792 204.127C35.6857 204.127 33.6222 202.209 32.8527 201.377L3.47446 170.973C2.07549 169.525 0.606574 167.136 1.09621 165.181C1.27108 164.421 1.83067 163.372 3.47446 162.865L7.39156 161.634L41.9111 197.359L40.7219 201.413C40.0224 203.766 38.5535 204.127 37.7142 204.127H37.6792ZM6.86695 163.697L3.96409 164.602C2.94984 164.928 2.84492 165.435 2.80995 165.58C2.56513 166.521 3.40451 168.258 4.73353 169.633L34.1118 200.037C35.4059 201.377 36.8048 202.245 37.6792 202.245C37.924 202.245 38.5535 202.245 38.9732 200.834L39.8476 197.83L6.86695 163.697Z" fill="#070707" stroke="#231F20" stroke-miterlimit="10"/>
<path fill-rule="evenodd" clip-rule="evenodd" d="M157.885 139.483L130.885 167.425C129.032 169.344 129.032 172.493 130.885 174.411L158.865 203.367L192.615 168.439L164.635 139.483C162.782 137.564 159.739 137.564 157.885 139.483Z" fill="white" stroke="#231F20" stroke-miterlimit="10"/>
<path d="M158.83 204.67L130.221 175.063C128.018 172.782 128.018 169.054 130.221 166.774L157.221 138.831C159.354 136.623 163.097 136.623 165.23 138.831L193.839 168.439L158.83 204.67ZM161.243 138.976C160.194 138.976 159.214 139.41 158.515 140.134L131.515 168.077C130.011 169.633 130.011 172.203 131.515 173.76L158.865 202.064L191.356 168.439L164.006 140.134C163.271 139.374 162.292 138.976 161.278 138.976H161.243Z" fill="#070707" stroke="#231F20" stroke-miterlimit="10"/>
<path fill-rule="evenodd" clip-rule="evenodd" d="M193.979 174.373L164.6 204.777C162.747 206.695 159.249 208.614 158.235 205.175L157.221 201.664L190.971 166.736L194.364 167.822C198.071 168.98 195.832 172.491 193.979 174.409V174.373Z" fill="white" stroke="#231F20" stroke-miterlimit="10"/>
<path d="M160.369 208C159.529 208 158.025 207.674 157.361 205.467L156.172 201.413L190.691 165.688L194.608 166.919C196.357 167.462 196.951 168.511 197.161 169.271C197.721 171.515 195.553 174.049 194.608 175.026L165.23 205.43C164.041 206.661 162.117 208 160.404 208H160.369ZM158.2 201.919L159.074 204.924C159.389 206.009 159.949 206.154 160.369 206.154C161.313 206.154 162.782 205.322 163.936 204.127L193.314 173.723C194.783 172.203 195.622 170.611 195.413 169.742C195.308 169.308 194.853 168.946 194.084 168.692L191.181 167.787L158.165 201.956L158.2 201.919Z" fill="#070707" stroke="#231F20" stroke-miterlimit="10"/>
<path fill-rule="evenodd" clip-rule="evenodd" d="M44.1146 69.5179L71.1146 41.5752C72.9683 39.6568 72.9683 36.5078 71.1146 34.5895L43.1703 5.6333L9.38525 40.5979L37.3646 69.5541C39.2182 71.4725 42.261 71.4725 44.1146 69.5541V69.5179Z" fill="white" stroke="#231F20" stroke-miterlimit="10"/>
<path d="M40.7569 71.9066C39.253 71.9066 37.819 71.2913 36.7348 70.2054L8.12598 40.5977L43.1701 4.33008L71.7789 33.9378C72.8631 35.0236 73.4227 36.5076 73.4227 38.064C73.4227 39.6204 72.8282 41.1044 71.7789 42.2265L44.7789 70.1692C43.7297 71.2913 42.2957 71.8704 40.7918 71.8704L40.7569 71.9066ZM10.6441 40.5977L37.9939 68.9024C39.4628 70.4226 42.0159 70.4226 43.4848 68.9024L70.4849 40.9597C71.2193 40.1996 71.6041 39.1861 71.6041 38.1364C71.6041 37.0868 71.2193 36.0371 70.4849 35.3132L43.1701 6.93614L10.6441 40.5977Z" fill="#070707" stroke="#231F20" stroke-miterlimit="10"/>
<path fill-rule="evenodd" clip-rule="evenodd" d="M8.02144 34.6262L37.3997 4.22223C39.2534 2.30388 42.7508 0.385534 43.765 3.82408L44.8142 7.33502L11.0292 42.2996L7.63673 41.25C3.92947 40.0917 6.16781 36.5808 8.02144 34.6624V34.6262Z" fill="white" stroke="#231F20" stroke-miterlimit="10"/>
<path d="M11.274 43.3122L7.35685 42.0816C5.60815 41.5387 5.01359 40.489 4.80374 39.7289C4.27913 37.4848 6.41255 34.9511 7.35685 33.9739L36.7701 3.56986C37.9592 2.33922 39.8828 1 41.5965 1C42.4359 1 43.9398 1.32576 44.6043 3.56986L45.7934 7.62373L11.274 43.3122ZM41.6315 2.84596C40.6872 2.84596 39.2183 3.67845 38.0642 4.87289L8.6509 35.2769C7.18198 36.7971 6.3426 38.3897 6.55245 39.2584C6.65737 39.6927 7.11204 40.0547 7.88147 40.308L10.7843 41.2129L43.7999 7.0808L42.9256 4.0766C42.6108 2.99074 42.0512 2.84596 41.6315 2.84596V2.84596Z" fill="#070707" stroke="#231F20" stroke-miterlimit="10"/>
</g>
</svg>
